<svg width="20" height="20" viewBox="0 0 20 20" fill="none" xmlns="http://www.w3.org/2000/svg">
<path d="M10 8.33341C11.841 8.33341 13.3333 6.84103 13.3333 5.00008C13.3333 3.15913 11.841 1.66675 10 1.66675C8.15906 1.66675 6.66668 3.15913 6.66668 5.00008C6.66668 6.84103 8.15906 8.33341 10 8.33341Z" fill="#757581"/>
<path d="M6.66674 10.2084C4.92421 10.2084 3.45751 11.5127 3.25391 13.2433L2.71268 17.8437C2.67235 18.1865 2.91756 18.4971 3.26038 18.5375C3.60319 18.5778 3.91379 18.3326 3.95412 17.9898L4.49535 13.3893C4.59959 12.5033 5.22412 11.793 6.04174 11.5493L6.04174 15.0434C6.04171 15.7921 6.04169 16.4165 6.10833 16.9121C6.17867 17.4353 6.33339 17.9076 6.71295 18.2872C7.09251 18.6668 7.56484 18.8215 8.088 18.8918C8.58365 18.9585 9.20799 18.9584 9.95672 18.9584H10.0434C10.7921 18.9584 11.4165 18.9585 11.9121 18.8918C12.4353 18.8215 12.9076 18.6668 13.2872 18.2872C13.6667 17.9076 13.8215 17.4353 13.8918 16.9121C13.9585 16.4165 13.9584 15.7922 13.9584 15.0434L13.9584 11.5493C14.776 11.793 15.4006 12.5033 15.5048 13.3893L16.046 17.9898C16.0864 18.3326 16.397 18.5778 16.7398 18.5375C17.0826 18.4971 17.3278 18.1865 17.2875 17.8437L16.7462 13.2433C16.5426 11.5127 15.0759 10.2084 13.3334 10.2084H6.66674Z" fill="#757581"/>
</svg>
