<svg width="20" height="20" viewBox="0 0 20 20" fill="none" xmlns="http://www.w3.org/2000/svg">
<rect x="6" y="6" width="8" height="7" fill="black"/>
<path fill-rule="evenodd" clip-rule="evenodd" d="M9.99935 18.3332C6.07098 18.3332 4.10679 18.3332 2.8864 17.1128C1.66602 15.8924 1.66602 13.9282 1.66602 9.99984C1.66602 6.07147 1.66602 4.10728 2.8864 2.88689C4.10679 1.6665 6.07098 1.6665 9.99935 1.6665C13.9277 1.6665 15.8919 1.6665 17.1123 2.88689C18.3327 4.10728 18.3327 6.07147 18.3327 9.99984C18.3327 13.9282 18.3327 15.8924 17.1123 17.1128C15.8919 18.3332 13.9277 18.3332 9.99935 18.3332ZM13.358 7.47456C13.602 7.71864 13.602 8.11437 13.358 8.35845L9.19129 12.5251C8.94721 12.7692 8.55149 12.7692 8.30741 12.5251L6.64074 10.8584C6.39666 10.6144 6.39666 10.2186 6.64074 9.97456C6.88482 9.73048 7.28055 9.73048 7.52462 9.97456L8.74935 11.1993L12.4741 7.47456C12.7182 7.23048 13.1139 7.23048 13.358 7.47456Z" fill="#E4A90F"/>
</svg>
