<svg width="16" height="16" viewBox="0 0 16 16" fill="none" xmlns="http://www.w3.org/2000/svg">
<path d="M14.6667 5.44172L14.6667 5.49007C14.6667 6.0639 14.6666 6.35082 14.5285 6.58556C14.3904 6.8203 14.1396 6.95964 13.638 7.23832L13.1091 7.53216C13.4735 6.30005 13.5951 4.97626 13.6401 3.84415C13.642 3.7956 13.6442 3.74647 13.6464 3.69681L13.6479 3.66202C14.0821 3.8128 14.3259 3.92521 14.4779 4.13622C14.6667 4.39811 14.6667 4.74598 14.6667 5.44172Z" fill="#E4A90F"/>
<path d="M1.33337 5.44172L1.33338 5.49007C1.33339 6.0639 1.3334 6.35082 1.47153 6.58556C1.60965 6.8203 1.86046 6.95964 2.36207 7.23832L2.89125 7.53232C2.52676 6.30017 2.40516 4.97631 2.36021 3.84415C2.35828 3.7956 2.35611 3.74647 2.35391 3.69681L2.35238 3.66194C1.91805 3.81276 1.67421 3.92517 1.52211 4.13622C1.33335 4.39811 1.33336 4.74599 1.33337 5.44172Z" fill="#E4A90F"/>
<path fill-rule="evenodd" clip-rule="evenodd" d="M10.9181 1.56466C10.1688 1.43822 9.18917 1.3335 8.00014 1.3335C6.81111 1.3335 5.83153 1.43822 5.08216 1.56466C4.32301 1.69274 3.94343 1.75679 3.62628 2.14738C3.30914 2.53798 3.3259 2.96015 3.35942 3.80448C3.4745 6.70308 4.10001 10.3235 7.50004 10.6439V13.0002H6.54658C6.22879 13.0002 5.95518 13.2245 5.89286 13.5361L5.76671 14.1668H4.00004C3.7239 14.1668 3.50004 14.3907 3.50004 14.6668C3.50004 14.943 3.7239 15.1668 4.00004 15.1668H12C12.2762 15.1668 12.5 14.943 12.5 14.6668C12.5 14.3907 12.2762 14.1668 12 14.1668H10.2334L10.1072 13.5361C10.0449 13.2245 9.77129 13.0002 9.45351 13.0002H8.50004V10.644C11.9002 10.3237 12.5258 6.70314 12.6409 3.80448C12.6744 2.96015 12.6911 2.53798 12.374 2.14738C12.0569 1.75679 11.6773 1.69274 10.9181 1.56466Z" fill="#E4A90F"/>
</svg>
