<svg width="16" height="16" fill="none" xmlns="http://www.w3.org/2000/svg"><path d="M14.667 5.442v.048c0 .574 0 .86-.139 1.095-.138.235-.388.374-.89.653l-.529.294c.364-1.232.486-2.556.531-3.688l.006-.147.002-.035c.434.15.678.263.83.474.189.262.189.61.189 1.306zm-13.334 0v.048c0 .574 0 .86.139 1.095.138.235.388.374.89.653l.53.294C2.526 6.3 2.404 4.976 2.36 3.844a32.606 32.606 0 00-.006-.147l-.002-.035c-.434.15-.678.263-.83.474-.189.262-.189.61-.189 1.306z" fill="#E4A90F"/><path fill-rule="evenodd" clip-rule="evenodd" d="M10.918 1.565A17.582 17.582 0 008 1.333c-1.189 0-2.168.105-2.918.232-.759.128-1.139.192-1.456.582-.317.39-.3.813-.267 1.657.115 2.899.741 6.52 4.141 6.84V13h-.953a.667.667 0 00-.654.536l-.126.63H4a.5.5 0 100 1h8a.5.5 0 100-1h-1.767l-.126-.63A.667.667 0 009.453 13H8.5v-2.356c3.4-.32 4.026-3.941 4.14-6.84.034-.844.051-1.266-.266-1.657-.317-.39-.697-.454-1.456-.582z" fill="#E4A90F"/></svg>