<svg width="32" height="32" viewBox="0 0 32 32" fill="none" xmlns="http://www.w3.org/2000/svg">
<path fill-rule="evenodd" clip-rule="evenodd" d="M24.3333 9.33325C24.3333 12.0947 22.0947 14.3333 19.3333 14.3333C16.5719 14.3333 14.3333 12.0947 14.3333 9.33325C14.3333 6.57183 16.5719 4.33325 19.3333 4.33325C22.0947 4.33325 24.3333 6.57183 24.3333 9.33325ZM19.3333 12.3333C20.9901 12.3333 22.3333 10.9901 22.3333 9.33325C22.3333 7.6764 20.9901 6.33325 19.3333 6.33325C17.6764 6.33325 16.3333 7.6764 16.3333 9.33325C16.3333 10.9901 17.6764 12.3333 19.3333 12.3333Z" fill="#E4A90F"/>
<path fill-rule="evenodd" clip-rule="evenodd" d="M7.66663 22.6666C7.66663 25.428 9.9052 27.6666 12.6666 27.6666C15.4281 27.6666 17.6666 25.428 17.6666 22.6666C17.6666 19.9052 15.4281 17.6666 12.6666 17.6666C9.9052 17.6666 7.66663 19.9052 7.66663 22.6666ZM12.6666 25.6666C11.0098 25.6666 9.66663 24.3234 9.66663 22.6666C9.66663 21.0097 11.0098 19.6666 12.6666 19.6666C14.3235 19.6666 15.6666 21.0097 15.6666 22.6666C15.6666 24.3234 14.3235 25.6666 12.6666 25.6666Z" fill="#E4A90F"/>
<path d="M19 22.6113C19 22.059 19.4477 21.6113 20 21.6113H29.3333C29.8856 21.6113 30.3333 22.059 30.3333 22.6113C30.3333 23.1636 29.8856 23.6113 29.3333 23.6113H20C19.4477 23.6113 19 23.1636 19 22.6113Z" fill="#E4A90F"/>
<path d="M12 8.27795C12.5522 8.27795 13 8.72566 13 9.27795C13 9.83023 12.5522 10.2779 12 10.2779L2.66663 10.2779C2.11434 10.2779 1.66663 9.83023 1.66663 9.27795C1.66663 8.72566 2.11434 8.27795 2.66663 8.27795L12 8.27795Z" fill="#E4A90F"/>
<path d="M1.66663 22.6113C1.66663 22.059 2.11434 21.6113 2.66663 21.6113H5.33329C5.88558 21.6113 6.33329 22.059 6.33329 22.6113C6.33329 23.1636 5.88558 23.6113 5.33329 23.6113H2.66663C2.11434 23.6113 1.66663 23.1636 1.66663 22.6113Z" fill="#E4A90F"/>
<path d="M29.3333 8.27795C29.8856 8.27795 30.3333 8.72566 30.3333 9.27795C30.3333 9.83023 29.8856 10.2779 29.3333 10.2779H26.6666C26.1143 10.2779 25.6666 9.83023 25.6666 9.27795C25.6666 8.72566 26.1143 8.27795 26.6666 8.27795H29.3333Z" fill="#E4A90F"/>
</svg>
