<svg width="51" height="51" viewBox="0 0 51 51" fill="none" xmlns="http://www.w3.org/2000/svg">
<path d="M27.2688 46.3279C33.9114 44.9964 42.5 40.218 42.5 27.8614C42.5 16.6168 34.2692 9.12897 28.3508 5.68842C27.0375 4.92497 25.5 5.929 25.5 7.44807V11.3336C25.5 14.3975 24.2118 19.9902 20.6323 22.3164C18.8048 23.5041 16.8311 21.7265 16.609 19.5584L16.4266 17.778C16.2146 15.7082 14.1066 14.4517 12.4524 15.7136C9.48062 17.9807 6.375 21.9505 6.375 27.8614C6.375 42.9725 17.6139 46.7503 23.2333 46.7503C23.5602 46.7503 23.9037 46.7405 24.2613 46.7199C21.4865 46.4827 17 44.7612 17 39.1941C17 34.8393 20.177 31.8932 22.5909 30.4611C23.2401 30.076 24 30.5761 24 31.3309V32.583C24 33.5412 24.3706 35.039 25.2527 36.0643C26.2509 37.2246 27.7162 36.0092 27.8343 34.4832C27.8716 34.0017 28.3558 33.695 28.7727 33.9386C30.1354 34.7351 31.875 36.4365 31.875 39.1941C31.875 43.5461 29.4759 45.5481 27.2688 46.3279Z" fill="#E4A90F"/>
</svg>
