<svg width="20" height="20" viewBox="0 0 20 20" fill="none" xmlns="http://www.w3.org/2000/svg">
<path d="M4.72477 8.26199L7.27655 4.80946C8.92602 2.57775 9.75075 1.46189 10.5202 1.6977C11.2897 1.9335 11.2897 3.3021 11.2897 6.03929V6.29737C11.2897 7.28462 11.2897 7.77824 11.6051 8.08787L11.6218 8.1039C11.9441 8.40699 12.4578 8.40699 13.4854 8.40699C15.3344 8.40699 16.259 8.40699 16.5714 8.96778C16.5766 8.97706 16.5816 8.98642 16.5865 8.99585C16.8815 9.56532 16.3462 10.2896 15.2755 11.7381L12.7237 15.1906C11.0742 17.4223 10.2495 18.5382 9.48003 18.3023C8.71056 18.0665 8.71058 16.6979 8.71062 13.9607L8.71062 13.7027C8.71064 12.7155 8.71065 12.2218 8.3952 11.9122L8.37851 11.8962C8.05625 11.5931 7.54248 11.5931 6.51496 11.5931C4.6659 11.5931 3.74137 11.5931 3.42891 11.0323C3.42374 11.023 3.41871 11.0137 3.41382 11.0042C3.11886 10.4348 3.65417 9.7105 4.72477 8.26199Z" fill="#757581"/>
</svg>
