<svg width="20" height="20" viewBox="0 0 20 20" fill="none" xmlns="http://www.w3.org/2000/svg">
<path d="M10.0002 8.33335C11.8411 8.33335 13.3335 6.84097 13.3335 5.00002C13.3335 3.15907 11.8411 1.66669 10.0002 1.66669C8.15921 1.66669 6.66683 3.15907 6.66683 5.00002C6.66683 6.84097 8.15921 8.33335 10.0002 8.33335Z" fill="#757581"/>
<path d="M6.66689 10.2084C4.92436 10.2084 3.45767 11.5126 3.25407 13.2432L2.71284 17.8437C2.67251 18.1865 2.91772 18.4971 3.26053 18.5374C3.60334 18.5777 3.91394 18.3325 3.95428 17.9897L4.49551 13.3893C4.59974 12.5033 5.22428 11.7929 6.04189 11.5492L6.04189 15.0434C6.04186 15.7921 6.04184 16.4164 6.10848 16.9121C6.17882 17.4352 6.33355 17.9076 6.7131 18.2871C7.09266 18.6667 7.565 18.8214 8.08816 18.8918C8.5838 18.9584 9.20815 18.9584 9.95687 18.9584H10.0436C10.7923 18.9584 11.4166 18.9584 11.9123 18.8918C12.4355 18.8214 12.9078 18.6667 13.2873 18.2871C13.6669 17.9076 13.8216 17.4352 13.892 16.9121C13.9586 16.4164 13.9586 15.7921 13.9586 15.0434L13.9586 11.5492C14.7762 11.7929 15.4007 12.5033 15.5049 13.3893L16.0462 17.9897C16.0865 18.3325 16.3971 18.5777 16.7399 18.5374C17.0827 18.4971 17.3279 18.1865 17.2876 17.8437L16.7464 13.2432C16.5428 11.5126 15.0761 10.2084 13.3336 10.2084H6.66689Z" fill="#757581"/>
</svg>
