<svg width="20" height="20" viewBox="0 0 20 20" fill="none" xmlns="http://www.w3.org/2000/svg">
<path fill-rule="evenodd" clip-rule="evenodd" d="M10 18.3334C14.0301 18.3334 17.2972 15.0969 17.2972 11.1045C17.2972 7.11207 14.0301 3.87559 10 3.87559C5.96986 3.87559 2.70278 7.11207 2.70278 11.1045C2.70278 15.0969 5.96986 18.3334 10 18.3334ZM10 7.28923C10.3358 7.28923 10.6081 7.55894 10.6081 7.89164V10.8549L12.457 12.6865C12.6945 12.9218 12.6945 13.3032 12.457 13.5385C12.2195 13.7737 11.8345 13.7737 11.597 13.5385L9.57001 11.5304C9.45597 11.4175 9.3919 11.2642 9.3919 11.1045V7.89164C9.3919 7.55894 9.66416 7.28923 10 7.28923Z" fill="#757581"/>
<path fill-rule="evenodd" clip-rule="evenodd" d="M6.86708 1.9499C7.04508 2.23203 6.9585 2.60369 6.6737 2.78002L3.43047 4.78804C3.14568 4.96437 2.77051 4.8786 2.59251 4.59647C2.41452 4.31434 2.50109 3.94269 2.78589 3.76636L6.02912 1.75833C6.31392 1.582 6.68908 1.66777 6.86708 1.9499Z" fill="#757581"/>
<path fill-rule="evenodd" clip-rule="evenodd" d="M13.1329 1.9499C13.3109 1.66777 13.6861 1.582 13.9709 1.75833L17.2141 3.76636C17.4989 3.94269 17.5855 4.31434 17.4075 4.59647C17.2295 4.8786 16.8543 4.96437 16.5695 4.78804L13.3263 2.78001C13.0415 2.60368 12.9549 2.23203 13.1329 1.9499Z" fill="#757581"/>
</svg>
