<svg width="16" height="16" viewBox="0 0 16 16" fill="none" xmlns="http://www.w3.org/2000/svg">
<path d="M6.1021 3.6055C6.94654 2.09067 7.36875 1.33325 8 1.33325C8.63124 1.33325 9.05345 2.09067 9.89789 3.6055L10.1164 3.99741C10.3563 4.42788 10.4763 4.64311 10.6634 4.78512C10.8504 4.92714 11.0834 4.97985 11.5494 5.08528L11.9736 5.18127C13.6134 5.55229 14.4333 5.7378 14.6284 6.36507C14.8234 6.99235 14.2645 7.64597 13.1466 8.9532L12.8574 9.2914C12.5397 9.66288 12.3809 9.84861 12.3094 10.0784C12.238 10.3082 12.262 10.556 12.31 11.0516L12.3537 11.5028C12.5227 13.247 12.6072 14.1191 12.0966 14.5067C11.5859 14.8944 10.8182 14.5409 9.28288 13.834L8.88567 13.6511C8.44938 13.4503 8.23123 13.3498 8 13.3498C7.76876 13.3498 7.55061 13.4503 7.11432 13.6511L6.71711 13.834C5.18178 14.5409 4.41411 14.8944 3.90343 14.5067C3.39274 14.1191 3.47725 13.247 3.64626 11.5029L3.68998 11.0516C3.73801 10.556 3.76203 10.3082 3.69057 10.0784C3.61911 9.84861 3.46028 9.66288 3.14261 9.2914L2.85339 8.9532C1.73549 7.64597 1.17654 6.99235 1.37161 6.36507C1.56667 5.7378 2.38657 5.55229 4.02635 5.18127L4.45059 5.08528C4.91656 4.97985 5.14955 4.92714 5.33662 4.78512C5.5237 4.64311 5.64368 4.42788 5.88364 3.99741L6.1021 3.6055Z" fill="#E4A90F"/>
</svg>
