<svg width="35" height="35" viewBox="0 0 35 35" fill="none" xmlns="http://www.w3.org/2000/svg">
<path d="M13.3477 7.88722C15.1949 4.57352 16.1185 2.91667 17.4993 2.91667C18.8802 2.91667 19.8038 4.57352 21.651 7.88722L22.1289 8.74451C22.6538 9.68616 22.9162 10.157 23.3255 10.4676C23.7347 10.7783 24.2444 10.8936 25.2637 11.1242L26.1917 11.3342C29.7787 12.1458 31.5722 12.5516 31.9989 13.9238C32.4256 15.2959 31.2029 16.7257 28.7575 19.5853L28.1249 20.3251C27.43 21.1377 27.0825 21.544 26.9262 22.0467C26.7699 22.5493 26.8224 23.0914 26.9275 24.1756L27.0231 25.1627C27.3929 28.978 27.5777 30.8856 26.4606 31.7337C25.3435 32.5817 23.6642 31.8085 20.3057 30.2621L19.4368 29.8621C18.4824 29.4226 18.0052 29.2029 17.4993 29.2029C16.9935 29.2029 16.5163 29.4226 15.5619 29.8621L14.693 30.2621C11.3345 31.8085 9.65523 32.5817 8.53811 31.7337C7.42098 30.8856 7.60584 28.978 7.97555 25.1627L8.0712 24.1756C8.17626 23.0914 8.22879 22.5493 8.07248 22.0467C7.91617 21.544 7.56872 21.1377 6.87381 20.3251L6.24116 19.5853C3.79575 16.7257 2.57305 15.2959 2.99975 13.9238C3.42646 12.5516 5.21997 12.1458 8.80701 11.3342L9.73502 11.1242C10.7543 10.8936 11.264 10.7783 11.6732 10.4676C12.0824 10.157 12.3449 9.68616 12.8698 8.74451L13.3477 7.88722Z" fill="#E4A90F"/>
</svg>
