<svg width="16" height="16" viewBox="0 0 16 16" fill="none" xmlns="http://www.w3.org/2000/svg">
<path d="M14.6666 5.44156L14.6666 5.48991C14.6666 6.06374 14.6666 6.35066 14.5285 6.5854C14.3904 6.82014 14.1396 6.95948 13.6379 7.23816L13.1091 7.532C13.4735 6.29989 13.5951 4.9761 13.64 3.84399C13.642 3.79544 13.6441 3.74631 13.6463 3.69665L13.6479 3.66186C14.0821 3.81264 14.3258 3.92505 14.4779 4.13606C14.6667 4.39795 14.6667 4.74582 14.6666 5.44156Z" fill="#E4A90F"/>
<path d="M1.33334 5.44156L1.33335 5.48991C1.33336 6.06374 1.33337 6.35066 1.4715 6.5854C1.60962 6.82014 1.86043 6.95948 2.36204 7.23816L2.89121 7.53216C2.52673 6.30001 2.40513 4.97615 2.36018 3.84399C2.35825 3.79544 2.35608 3.74631 2.35388 3.69665L2.35235 3.66178C1.91801 3.8126 1.67418 3.92501 1.52207 4.13606C1.33332 4.39795 1.33333 4.74583 1.33334 5.44156Z" fill="#E4A90F"/>
<path fill-rule="evenodd" clip-rule="evenodd" d="M10.9181 1.5645C10.1687 1.43806 9.18914 1.33334 8.00011 1.33334C6.81108 1.33334 5.8315 1.43806 5.08213 1.5645C4.32298 1.69258 3.9434 1.75663 3.62625 2.14722C3.30911 2.53782 3.32587 2.95999 3.35939 3.80432C3.47447 6.70292 4.09998 10.3234 7.50001 10.6438V13H6.54655C6.22876 13 5.95515 13.2243 5.89283 13.5359L5.76668 14.1667H4.00001C3.72387 14.1667 3.50001 14.3905 3.50001 14.6667C3.50001 14.9428 3.72387 15.1667 4.00001 15.1667H12C12.2762 15.1667 12.5 14.9428 12.5 14.6667C12.5 14.3905 12.2762 14.1667 12 14.1667H10.2333L10.1072 13.5359C10.0449 13.2243 9.77126 13 9.45347 13H8.50001V10.6438C11.9002 10.3235 12.5258 6.70298 12.6408 3.80432C12.6744 2.95999 12.6911 2.53782 12.374 2.14722C12.0568 1.75663 11.6772 1.69258 10.9181 1.5645Z" fill="#E4A90F"/>
</svg>
