<svg width="16" height="16" viewBox="0 0 16 16" fill="none" xmlns="http://www.w3.org/2000/svg">
<path fill-rule="evenodd" clip-rule="evenodd" d="M3.74958 2.9494C2.64359 3.45496 1.83334 4.65743 1.83334 6.09134C1.83334 7.55627 2.43282 8.68543 3.2922 9.65312C4.00049 10.4507 4.8579 11.1117 5.69409 11.7563C5.8927 11.9095 6.09011 12.0617 6.28404 12.2145C6.63473 12.491 6.94756 12.7336 7.24908 12.9098C7.55077 13.0861 7.79361 13.1666 8.00001 13.1666C8.20641 13.1666 8.44925 13.0861 8.75094 12.9098C9.05246 12.7336 9.36529 12.491 9.71598 12.2145C9.90991 12.0617 10.1073 11.9095 10.3059 11.7563C11.1421 11.1117 11.9995 10.4507 12.7078 9.65312C13.5672 8.68543 14.1667 7.55627 14.1667 6.09134C14.1667 4.65743 13.3564 3.45496 12.2504 2.9494C11.176 2.45826 9.73224 2.58833 8.36025 4.01376C8.266 4.11169 8.13593 4.16703 8.00001 4.16703C7.86409 4.16703 7.73402 4.11169 7.63977 4.01376C6.26778 2.58833 4.82406 2.45826 3.74958 2.9494ZM8.00001 2.97248C6.45864 1.59344 4.73265 1.40052 3.33385 2.03991C1.85649 2.71522 0.833344 4.2833 0.833344 6.09134C0.833344 7.86836 1.57367 9.22398 2.54449 10.3171C3.32193 11.1926 4.27349 11.9252 5.11389 12.5723C5.3044 12.719 5.4892 12.8613 5.66496 12.9999C6.00645 13.2691 6.37304 13.5561 6.74456 13.7732C7.11592 13.9902 7.53974 14.1666 8.00001 14.1666C8.46028 14.1666 8.88411 13.9902 9.25546 13.7732C9.62698 13.5561 9.99357 13.2691 10.3351 12.9999C10.5108 12.8613 10.6956 12.719 10.8861 12.5723C11.7265 11.9252 12.6781 11.1926 13.4555 10.3171C14.4263 9.22398 15.1667 7.86836 15.1667 6.09134C15.1667 4.2833 14.1435 2.71522 12.6662 2.03991C11.2674 1.40052 9.54138 1.59344 8.00001 2.97248Z" fill="#EAE1E1"/>
</svg>
