<svg width="16" height="16" viewBox="0 0 16 16" fill="none" xmlns="http://www.w3.org/2000/svg">
<g clip-path="url(#clip0_11_3348)">
<path d="M8.66668 5.33325C8.66668 4.96506 8.3682 4.66658 8.00001 4.66658C7.63182 4.66658 7.33334 4.96506 7.33334 5.33325C7.33334 5.70144 7.63182 5.99992 8.00001 5.99992C8.3682 5.99992 8.66668 5.70144 8.66668 5.33325Z" fill="#E4A90F"/>
<path d="M8.00001 11.8333C8.27615 11.8333 8.50001 11.6094 8.50001 11.3333V7.33325C8.50001 7.05711 8.27615 6.83325 8.00001 6.83325C7.72387 6.83325 7.50001 7.05711 7.50001 7.33325V11.3333C7.50001 11.6094 7.72387 11.8333 8.00001 11.8333Z" fill="#E4A90F"/>
<path fill-rule="evenodd" clip-rule="evenodd" d="M8.03826 0.833252H7.96176C6.42283 0.833244 5.2168 0.833237 4.27581 0.95975C3.31266 1.08924 2.55264 1.35947 1.9561 1.95601C1.35956 2.55255 1.08933 3.31257 0.959842 4.27572C0.833329 5.21671 0.833335 6.42273 0.833344 7.96165V8.03817C0.833335 9.57709 0.833329 10.7831 0.959842 11.7241C1.08933 12.6873 1.35956 13.4473 1.9561 14.0438C2.55264 14.6404 3.31266 14.9106 4.27581 15.0401C5.21681 15.1666 6.42283 15.1666 7.96176 15.1666H8.03826C9.57719 15.1666 10.7832 15.1666 11.7242 15.0401C12.6874 14.9106 13.4474 14.6404 14.0439 14.0438C14.6405 13.4473 14.9107 12.6873 15.0402 11.7241C15.1667 10.7831 15.1667 9.5771 15.1667 8.03817V7.96167C15.1667 6.42274 15.1667 5.21671 15.0402 4.27572C14.9107 3.31257 14.6405 2.55255 14.0439 1.95601C13.4474 1.35947 12.6874 1.08924 11.7242 0.95975C10.7832 0.833237 9.57718 0.833244 8.03826 0.833252ZM2.66321 2.66312C3.04298 2.28335 3.55679 2.06542 4.40906 1.95083C5.27571 1.83431 6.41453 1.83325 8.00001 1.83325C9.58549 1.83325 10.7243 1.83431 11.591 1.95083C12.4432 2.06542 12.957 2.28335 13.3368 2.66312C13.7166 3.04289 13.9345 3.5567 14.0491 4.40897C14.1656 5.27562 14.1667 6.41443 14.1667 7.99992C14.1667 9.5854 14.1656 10.7242 14.0491 11.5909C13.9345 12.4431 13.7166 12.9569 13.3368 13.3367C12.957 13.7165 12.4432 13.9344 11.591 14.049C10.7243 14.1655 9.58549 14.1666 8.00001 14.1666C6.41453 14.1666 5.27571 14.1655 4.40906 14.049C3.55679 13.9344 3.04298 13.7165 2.66321 13.3367C2.28344 12.9569 2.06551 12.4431 1.95092 11.5909C1.83441 10.7242 1.83334 9.5854 1.83334 7.99992C1.83334 6.41443 1.83441 5.27562 1.95092 4.40897C2.06551 3.5567 2.28344 3.04289 2.66321 2.66312Z" fill="#E4A90F"/>
</g>
<defs>
<clipPath id="clip0_11_3348">
<rect width="16" height="16" fill="white"/>
</clipPath>
</defs>
</svg>
