<svg width="69" height="45" fill="none" xmlns="http://www.w3.org/2000/svg"><path d="M11.237 35.104l-2.905 6.113c-.404.847-1.05 1.533-1.937 2.058-.847.525-1.655.787-2.421.787-1.09 0-2.018-.323-2.784-.969C.463 42.448.1 41.62.1 40.612c0-.606.141-1.19.424-1.756l16.645-34.44c.646-1.332 1.372-2.34 2.179-3.026C20.195.663 21.285.3 22.616.3c1.372 0 2.381.363 3.027 1.09.645.685 1.11 1.694 1.392 3.026l6.96 34.44v.666c0 1.332-.483 2.421-1.452 3.269-.928.847-2.078 1.27-3.45 1.27-.807 0-1.594-.261-2.36-.786-.767-.565-1.231-1.251-1.393-2.058l-1.27-6.113H11.236zm11.622-6.9l-1.635-10.35c-.161-.929-.242-2.906-.242-5.933-.645 2.543-1.291 4.52-1.937 5.932l-4.66 10.35h8.474z" fill="url(#paint0_linear_11_3244)"/><path d="M51.601 8.532l-4.418 31.595c-.162 1.05-.727 1.958-1.695 2.724-.928.767-1.957 1.15-3.087 1.15-1.17 0-2.118-.383-2.845-1.15-.726-.766-1.008-1.674-.847-2.724l4.903-35.106c.161-1.049.746-1.997 1.755-2.845 1.009-.887 2.139-1.331 3.39-1.331H65.22c1.09 0 1.977.343 2.663 1.029.686.645 1.03 1.452 1.03 2.42 0 1.171-.485 2.18-1.453 3.027-.928.807-2.038 1.21-3.33 1.21H51.602z" fill="url(#paint1_linear_11_3244)"/><defs><linearGradient id="paint0_linear_11_3244" x1="34.506" y1=".3" x2="34.506" y2="44.062" gradientUnits="userSpaceOnUse"><stop offset=".078" stop-color="#EF544A"/><stop offset=".422" stop-color="#C6251A"/><stop offset=".422" stop-color="#C6251A"/></linearGradient><linearGradient id="paint1_linear_11_3244" x1="34.506" y1=".3" x2="34.506" y2="44.062" gradientUnits="userSpaceOnUse"><stop offset=".078" stop-color="#EF544A"/><stop offset=".422" stop-color="#C6251A"/><stop offset=".422" stop-color="#C6251A"/></linearGradient></defs></svg>